<mxfile host="app.diagrams.net" agent="Mozilla/5.0 (Windows NT 10.0; Win64; x64) AppleWebKit/537.36 (KHTML, like Gecko) Chrome/130.0.0.0 Safari/537.36" version="24.8.6">
  <diagram name="Страница — 1" id="tFzpR4RlKHCHxfyQ5unw">
    <mxGraphModel dx="1077" dy="588" grid="1" gridSize="10" guides="1" tooltips="1" connect="1" arrows="1" fold="1" page="1" pageScale="1" pageWidth="827" pageHeight="1169" math="0" shadow="0">
      <root>
        <mxCell id="0" />
        <mxCell id="1" parent="0" />
        <mxCell id="in0xtbnHHHpLUI2kYI4D-1" value="" style="ellipse;html=1;shape=startState;fillColor=#000000;strokeColor=#ff0000;" vertex="1" parent="1">
          <mxGeometry x="60" y="370" width="30" height="30" as="geometry" />
        </mxCell>
        <mxCell id="in0xtbnHHHpLUI2kYI4D-2" value="" style="edgeStyle=orthogonalEdgeStyle;html=1;verticalAlign=bottom;endArrow=open;endSize=8;strokeColor=#ff0000;rounded=0;entryX=0;entryY=0.5;entryDx=0;entryDy=0;" edge="1" source="in0xtbnHHHpLUI2kYI4D-1" parent="1" target="in0xtbnHHHpLUI2kYI4D-3">
          <mxGeometry relative="1" as="geometry">
            <mxPoint x="180" y="385" as="targetPoint" />
          </mxGeometry>
        </mxCell>
        <mxCell id="in0xtbnHHHpLUI2kYI4D-3" value="Ped_RED is on" style="rounded=1;whiteSpace=wrap;html=1;arcSize=40;fontColor=#000000;fillColor=#ffffc0;strokeColor=#ff0000;" vertex="1" parent="1">
          <mxGeometry x="190" y="365" width="130" height="40" as="geometry" />
        </mxCell>
        <mxCell id="in0xtbnHHHpLUI2kYI4D-24" style="edgeStyle=orthogonalEdgeStyle;rounded=0;orthogonalLoop=1;jettySize=auto;html=1;entryX=0;entryY=0.5;entryDx=0;entryDy=0;" edge="1" parent="1" source="in0xtbnHHHpLUI2kYI4D-5" target="in0xtbnHHHpLUI2kYI4D-8">
          <mxGeometry relative="1" as="geometry" />
        </mxCell>
        <mxCell id="in0xtbnHHHpLUI2kYI4D-5" value="" style="shape=line;html=1;strokeWidth=6;strokeColor=#ff0000;direction=north;" vertex="1" parent="1">
          <mxGeometry x="414" y="305" width="10" height="100" as="geometry" />
        </mxCell>
        <mxCell id="in0xtbnHHHpLUI2kYI4D-25" style="edgeStyle=orthogonalEdgeStyle;rounded=0;orthogonalLoop=1;jettySize=auto;html=1;entryX=0.5;entryY=1;entryDx=0;entryDy=0;" edge="1" parent="1" source="in0xtbnHHHpLUI2kYI4D-8" target="in0xtbnHHHpLUI2kYI4D-3">
          <mxGeometry relative="1" as="geometry">
            <Array as="points">
              <mxPoint x="510" y="425" />
              <mxPoint x="255" y="425" />
            </Array>
          </mxGeometry>
        </mxCell>
        <mxCell id="in0xtbnHHHpLUI2kYI4D-8" value="Ped_green is on" style="rounded=1;whiteSpace=wrap;html=1;arcSize=40;fontColor=#000000;fillColor=#ffffc0;strokeColor=#ff0000;" vertex="1" parent="1">
          <mxGeometry x="450" y="335" width="120" height="40" as="geometry" />
        </mxCell>
        <mxCell id="in0xtbnHHHpLUI2kYI4D-12" value="" style="ellipse;html=1;shape=startState;fillColor=#000000;strokeColor=#ff0000;" vertex="1" parent="1">
          <mxGeometry x="60" y="245" width="30" height="30" as="geometry" />
        </mxCell>
        <mxCell id="in0xtbnHHHpLUI2kYI4D-13" value="" style="edgeStyle=orthogonalEdgeStyle;html=1;verticalAlign=bottom;endArrow=open;endSize=8;strokeColor=#ff0000;rounded=0;entryX=0;entryY=0.5;entryDx=0;entryDy=0;" edge="1" source="in0xtbnHHHpLUI2kYI4D-12" parent="1" target="in0xtbnHHHpLUI2kYI4D-17">
          <mxGeometry relative="1" as="geometry">
            <mxPoint x="150" y="260" as="targetPoint" />
          </mxGeometry>
        </mxCell>
        <mxCell id="in0xtbnHHHpLUI2kYI4D-22" style="edgeStyle=orthogonalEdgeStyle;rounded=0;orthogonalLoop=1;jettySize=auto;html=1;entryX=0;entryY=0.5;entryDx=0;entryDy=0;" edge="1" parent="1" source="in0xtbnHHHpLUI2kYI4D-17" target="in0xtbnHHHpLUI2kYI4D-19">
          <mxGeometry relative="1" as="geometry" />
        </mxCell>
        <mxCell id="in0xtbnHHHpLUI2kYI4D-17" value="Red is on" style="rounded=1;whiteSpace=wrap;html=1;arcSize=40;fontColor=#000000;fillColor=#ffffc0;strokeColor=#ff0000;" vertex="1" parent="1">
          <mxGeometry x="130" y="240" width="120" height="40" as="geometry" />
        </mxCell>
        <mxCell id="in0xtbnHHHpLUI2kYI4D-21" style="edgeStyle=orthogonalEdgeStyle;rounded=0;orthogonalLoop=1;jettySize=auto;html=1;entryX=0.738;entryY=0.26;entryDx=0;entryDy=0;entryPerimeter=0;" edge="1" parent="1" source="in0xtbnHHHpLUI2kYI4D-19" target="in0xtbnHHHpLUI2kYI4D-5">
          <mxGeometry relative="1" as="geometry">
            <mxPoint x="320" y="340" as="targetPoint" />
            <Array as="points">
              <mxPoint x="340" y="331" />
            </Array>
          </mxGeometry>
        </mxCell>
        <mxCell id="in0xtbnHHHpLUI2kYI4D-26" value="yes" style="edgeLabel;html=1;align=center;verticalAlign=middle;resizable=0;points=[];" vertex="1" connectable="0" parent="in0xtbnHHHpLUI2kYI4D-21">
          <mxGeometry x="-0.6821" relative="1" as="geometry">
            <mxPoint y="1" as="offset" />
          </mxGeometry>
        </mxCell>
        <mxCell id="in0xtbnHHHpLUI2kYI4D-27" style="edgeStyle=orthogonalEdgeStyle;rounded=0;orthogonalLoop=1;jettySize=auto;html=1;entryX=0;entryY=0.5;entryDx=0;entryDy=0;exitX=1;exitY=0.5;exitDx=0;exitDy=0;" edge="1" parent="1" source="in0xtbnHHHpLUI2kYI4D-19" target="in0xtbnHHHpLUI2kYI4D-28">
          <mxGeometry relative="1" as="geometry">
            <mxPoint x="464" y="260.5" as="targetPoint" />
            <mxPoint x="364" y="259.8" as="sourcePoint" />
            <Array as="points" />
          </mxGeometry>
        </mxCell>
        <mxCell id="in0xtbnHHHpLUI2kYI4D-30" value="no" style="edgeLabel;html=1;align=center;verticalAlign=middle;resizable=0;points=[];" vertex="1" connectable="0" parent="in0xtbnHHHpLUI2kYI4D-27">
          <mxGeometry x="-0.4336" relative="1" as="geometry">
            <mxPoint x="6" y="-10" as="offset" />
          </mxGeometry>
        </mxCell>
        <mxCell id="in0xtbnHHHpLUI2kYI4D-19" value="button pressed" style="rhombus;whiteSpace=wrap;html=1;fontColor=#000000;fillColor=#ffffc0;strokeColor=#ff0000;" vertex="1" parent="1">
          <mxGeometry x="300" y="235" width="80" height="50" as="geometry" />
        </mxCell>
        <mxCell id="in0xtbnHHHpLUI2kYI4D-23" style="edgeStyle=orthogonalEdgeStyle;rounded=0;orthogonalLoop=1;jettySize=auto;html=1;entryX=0.201;entryY=0.356;entryDx=0;entryDy=0;entryPerimeter=0;" edge="1" parent="1" source="in0xtbnHHHpLUI2kYI4D-3" target="in0xtbnHHHpLUI2kYI4D-5">
          <mxGeometry relative="1" as="geometry" />
        </mxCell>
        <mxCell id="in0xtbnHHHpLUI2kYI4D-31" style="edgeStyle=orthogonalEdgeStyle;rounded=0;orthogonalLoop=1;jettySize=auto;html=1;" edge="1" parent="1" source="in0xtbnHHHpLUI2kYI4D-28">
          <mxGeometry relative="1" as="geometry">
            <mxPoint x="600" y="260" as="targetPoint" />
          </mxGeometry>
        </mxCell>
        <mxCell id="in0xtbnHHHpLUI2kYI4D-28" value="Yellow_GREEN is on" style="rounded=1;whiteSpace=wrap;html=1;arcSize=40;fontColor=#000000;fillColor=#ffffc0;strokeColor=#ff0000;" vertex="1" parent="1">
          <mxGeometry x="430" y="240" width="120" height="40" as="geometry" />
        </mxCell>
        <mxCell id="in0xtbnHHHpLUI2kYI4D-35" style="edgeStyle=orthogonalEdgeStyle;rounded=0;orthogonalLoop=1;jettySize=auto;html=1;entryX=0.5;entryY=1;entryDx=0;entryDy=0;" edge="1" parent="1" source="in0xtbnHHHpLUI2kYI4D-32" target="in0xtbnHHHpLUI2kYI4D-38">
          <mxGeometry relative="1" as="geometry">
            <mxPoint x="660" y="170" as="targetPoint" />
          </mxGeometry>
        </mxCell>
        <mxCell id="in0xtbnHHHpLUI2kYI4D-32" value="Green is on" style="rounded=1;whiteSpace=wrap;html=1;arcSize=40;fontColor=#000000;fillColor=#ffffc0;strokeColor=#ff0000;" vertex="1" parent="1">
          <mxGeometry x="600" y="240" width="120" height="40" as="geometry" />
        </mxCell>
        <mxCell id="in0xtbnHHHpLUI2kYI4D-41" style="edgeStyle=orthogonalEdgeStyle;rounded=0;orthogonalLoop=1;jettySize=auto;html=1;entryX=0.5;entryY=0;entryDx=0;entryDy=0;" edge="1" parent="1" source="in0xtbnHHHpLUI2kYI4D-38" target="in0xtbnHHHpLUI2kYI4D-17">
          <mxGeometry relative="1" as="geometry" />
        </mxCell>
        <mxCell id="in0xtbnHHHpLUI2kYI4D-38" value="Yellow_RED is on" style="rounded=1;whiteSpace=wrap;html=1;arcSize=40;fontColor=#000000;fillColor=#ffffc0;strokeColor=#ff0000;" vertex="1" parent="1">
          <mxGeometry x="600" y="130" width="120" height="40" as="geometry" />
        </mxCell>
        <mxCell id="in0xtbnHHHpLUI2kYI4D-42" value="&lt;font style=&quot;font-size: 19px; font-weight: normal;&quot;&gt;Trafficlight&lt;/font&gt;" style="text;strokeColor=none;fillColor=none;html=1;fontSize=24;fontStyle=1;verticalAlign=middle;align=center;" vertex="1" parent="1">
          <mxGeometry x="10" y="200" width="100" height="40" as="geometry" />
        </mxCell>
        <mxCell id="in0xtbnHHHpLUI2kYI4D-43" value="&lt;span style=&quot;color: rgb(0, 0, 0); font-family: Helvetica; font-size: 19px; font-style: normal; font-variant-ligatures: normal; font-variant-caps: normal; font-weight: 400; letter-spacing: normal; orphans: 2; text-align: center; text-indent: 0px; text-transform: none; widows: 2; word-spacing: 0px; -webkit-text-stroke-width: 0px; white-space: nowrap; background-color: rgb(251, 251, 251); text-decoration-thickness: initial; text-decoration-style: initial; text-decoration-color: initial; display: inline !important; float: none;&quot;&gt;Pedastrianlight&lt;/span&gt;" style="text;whiteSpace=wrap;html=1;" vertex="1" parent="1">
          <mxGeometry x="10" y="335" width="80" height="30" as="geometry" />
        </mxCell>
      </root>
    </mxGraphModel>
  </diagram>
</mxfile>
